<svg xmlns="http://www.w3.org/2000/svg">
  <symbol id="frontal" viewBox="0 0 207.86 152.93"> 
    <title>frontal</title>
     <path d="M101.53,38.69c3.23,7.12.09,13.45,5.09,17.8,1.59,1.38,3.34,1.99,4.53,2.28,1.83.63,4.88,1.92,7.82,4.52,11.09,9.8,11.27,30.07,6.33,32.28-1,.44-2.52.31-4.94-1.37-1.13-1.69-3.65-4.91-8.05-6.79-4.41-1.89-8.34-1.43-10.88-1.13-4,.47-6.82,1.74-9.87,3.13-8.57,3.92-8.22,6.37-12.47,7.1-5.55.95-5.91-3.28-15.85-4.75-9.67-1.43-14.71,1.78-15.72,2.46-.71.48-1.6,1.08-2.52,2.14-3.35,3.83-1.74,7.32-3.92,11.47-2.53,4.84-8.01,6.4-8.51,6.53-4.05,1.09-7.53-.13-12.18-1.87-2.46-.92-4.85-1.83-7.57-3.89-4.46-3.39-7.72-7.63-7.23-13.68.14-1.77-.49-2.89-1.76-4.02-4.09-3.64-4.58-7.02-2.13-12.25,1.01-2.15,1.4-4.9-.58-7.23-.51-.6-1.03-1.42-1.09-2.45-.18-3.29.27-6.51,1.58-9.46,2.92-6.59,3.29-11.85,11.18-12.75-.55-.7-.4-1.56-.21-2.24,1.39-5.21,4.18-9.59,9.24-11.64,4.75-1.92,8.43-5.02,12.26-8.25,6.59-5.55,14.23-8.97,23.13-8.56,3.01.14,5.7.85,8.03,2.51l.21-.53c1.61-2.43,4.13-3.26,6.71-4.31,2.17-.89,18.23-9.37,25.97-3.13,2.13,1.72,3.86,4.72,3.07,6.08-.59,1.03-2.29.58-4.64,1.07-3.75.78-8.09,3.74-8.56,6.55-.76,4.59,9.39,5.27,13.53,14.37Z"/>
   </symbol>

   <symbol id="occipital" viewBox="0 0 207.86 152.93"> 
    <title>occipital</title>
     <path d="M122.8,60.06c1.45.32,2.76,1.12,3.69,2.29,2.15,2.71,4.62,6.51,6.36,11.4,3.37,9.47-1.95,14.42,1.47,15.98,3.36,1.53,9.46-2.78,19.27-5.21,2.5-.62,8.96-2.22,15.35.44,5.14,2.14,4.05,4.46,11.24,8.51,4.86,2.73,8,3.16,9.59,6.39.95,1.92.91,3.95.66,5.5-.11.69-.11,1.37,0,2.06.17,1.07.49,2.34,1.12,3.68.83,1.76,1.93,3.11,3,4.12,1.86,1.76,4.6,2.31,6.96,1.31,1.67-.71,2.55-1.64,3.06-2.47,2.79-4.63-3.79-10.3-1.59-18.81.84-3.27,1.87-2.62,3.28-7.23,1.09-3.55,2.85-9.24.26-13.66-2.04-3.5-5.12-3.31-5.52-6.04-.44-3.01,3.18-3.91,4.2-8.01,1.43-5.74-5.44-12.35-7.62-14.19-.25-.21-.65-.53-1.18-1.05-2.73-2.65-3.89-5.47-4.34-6.44-.72-1.57-1.94-3.58-4.19-5.89-1.46-1.51-2.2-3.61-1.81-5.68.18-.98.27-2.11.15-3.36-.12-1.21-.75-5.55-3.97-7.6-2.69-1.71-4.35-.02-8.33-.88-4.58-.99-4.67-3.4-10.7-7.4-2.43-1.61-7.81-5.18-13.04-3.89-4.46,1.1-5.12,4.82-8.73,4.69-3.02-.11-3.92-2.76-7.62-5.27C128.48-.27,122.48-.07,118.65.05c-8.2.27-18.18,3.86-18.26,7.68-.07,3.18,6.84,4.69,6.5,8.05-.2,1.95-2.54,3.37-4.93,4.37-.29.12-.6.22-.91.3-5.95,1.51-7.2,2.76-7.2,3.64,0,1.84,5.48,1.97,10.4,7.2,2.4,2.55,3.4,4.97,3.67,5.65.94,2.42.83,3.87,1.2,6.4.13.85.78,6.78,3.38,10.25,3.23,4.31,7.67,5.89,10.3,6.47Z"/>
   </symbol>

   <symbol id="temporal" viewBox="0 0 207.86 152.93"> 
    <title>temporal</title>
     <path d="M70.9,98.37c3.52,1.46,5.73,3.51,9.61,3.09,3.54-.39,5.3-2.49,8.14-4.52,6.36-4.56,16.43-7.55,23.68-5.13,7.35,2.46,6.94,8.85,13.02,9.6,4.45.55,5.51-3.46,16.39-8.7,2.22-1.07,6.01-2.7,11-3.91,4.86-1.18,7.36-1.76,10.33-.95,3.73,1.01,3.58,2.93,9.18,6.23,5.68,3.36,6.71,2.19,9.35,4.52,3.3,2.92,1.59,5.81,4.66,12.83,2.74,6.27,5.27,5.73,6.24,9.85,1.36,5.76-2.16,11.12-5.24,15.8-3.17,4.82-7.52,11.45-14.91,12.61-5.26.83-10.65-1.34-11.6-1.7-4.5-1.73-4.21-2.92-6.91-3.32-5.29-.79-6.87,3.74-12.34,3.91-6.4.2-8.75-6.85-13.38-5.64-2.98.78-2.36,3.68-5.95,6.14-5.42,3.7-14.03,2.02-19.27-.43-4.97-2.32-6.61-5.19-10.06-4.5-1.86.38-2.27,1.39-6.19,3.71-.64.38-3.87,2.27-6.87,3.35-1.41.5-10.64,3.82-16.62-.46-3.19-2.28-2.28-4.45-5.59-6.24-3.59-1.94-5.74.01-10.37-1.23-5.41-1.45-8.55-5.75-9.22-6.68-3.24-4.44-5.29-11.64-2.35-16.41,1.25-2.03,2.2-1.65,4.43-3.94,5.41-5.53,2.65-10.58,6.37-14.95,4.72-5.56,16.65-6.19,24.48-2.94Z" />
   </symbol>

</svg>